<?xml version="1.0" encoding="UTF-8" standalone="no"?>
<!DOCTYPE svg PUBLIC "-//W3C//DTD SVG 1.0//EN" "http://www.w3.org/TR/2001/PR-SVG-20010719/DTD/svg10.dtd">
<svg width="69cm" height="28cm" viewBox="-288 28 1377 557" xmlns="http://www.w3.org/2000/svg" xmlns:xlink="http://www.w3.org/1999/xlink">
  <g>
    <rect style="fill: #ffffff" x="744.382" y="332" width="143.5" height="36"/>
    <rect style="fill: none; fill-opacity:0; stroke-width: 2; stroke: #000000" x="744.382" y="332" width="143.5" height="36"/>
    <text font-size="12.8" style="fill: #000000;text-anchor:middle;font-family:monospace;font-style:normal;font-weight:normal" x="816.132" y="353.2">Evento_Transito</text>
  </g>
  <g>
    <ellipse style="fill: #ffffff" cx="1005.48" cy="307.232" rx="81.6" ry="18"/>
    <ellipse style="fill: none; fill-opacity:0; stroke-width: 2; stroke: #000000" cx="1005.48" cy="307.232" rx="81.6" ry="18"/>
    <text font-size="12.8" style="fill: #000000;text-anchor:middle;font-family:monospace;font-style:normal;font-weight:normal" x="1005.48" y="310.432">entidadeAutuante</text>
  </g>
  <g>
    <ellipse style="fill: #ffffff" cx="708.626" cy="437.778" rx="77.75" ry="18"/>
    <ellipse style="fill: none; fill-opacity:0; stroke-width: 2; stroke: #000000" cx="708.626" cy="437.778" rx="77.75" ry="18"/>
    <text font-size="12.8" style="fill: #000000;text-anchor:middle;font-family:monospace;font-style:normal;font-weight:normal" x="708.626" y="440.978">estadoPagamento</text>
  </g>
  <g>
    <ellipse style="fill: #ffffff" cx="941.002" cy="393.59" rx="39.25" ry="18"/>
    <ellipse style="fill: none; fill-opacity:0; stroke-width: 2; stroke: #000000" cx="941.002" cy="393.59" rx="39.25" ry="18"/>
    <text font-size="12.8" style="fill: #000000;text-anchor:middle;font-family:monospace;font-style:normal;font-weight:normal" x="941.002" y="396.79">valor</text>
  </g>
  <g>
    <ellipse style="fill: #ffffff" cx="906.51" cy="434.862" rx="54.65" ry="18"/>
    <ellipse style="fill: none; fill-opacity:0; stroke-width: 2; stroke: #000000" cx="906.51" cy="434.862" rx="54.65" ry="18"/>
    <text font-size="12.8" style="fill: #000000;text-anchor:middle;font-family:monospace;font-style:normal;font-weight:normal" x="906.51" y="438.062">descricao</text>
  </g>
  <g>
    <ellipse style="fill: #ffffff" cx="851.85" cy="472.376" rx="35.4" ry="18"/>
    <ellipse style="fill: none; fill-opacity:0; stroke-width: 2; stroke: #000000" cx="851.85" cy="472.376" rx="35.4" ry="18"/>
    <text font-size="12.8" style="fill: #000000;text-anchor:middle;font-family:monospace;font-style:normal;font-weight:normal" x="851.85" y="475.576">tipo</text>
  </g>
  <g>
    <ellipse style="fill: #ffffff" cx="975.024" cy="355.756" rx="62.35" ry="18"/>
    <ellipse style="fill: none; fill-opacity:0; stroke-width: 2; stroke: #000000" cx="975.024" cy="355.756" rx="62.35" ry="18"/>
    <text font-size="12.8" style="fill: #000000;text-anchor:middle;font-family:monospace;font-style:normal;font-weight:normal" x="975.024" y="358.956">localizacao</text>
  </g>
  <g>
    <ellipse style="fill: #ffffff" cx="779.788" cy="472.755" rx="35.4" ry="18.001"/>
    <ellipse style="fill: none; fill-opacity:0; stroke-width: 2; stroke: #000000" cx="779.788" cy="472.755" rx="35.4" ry="18.001"/>
    <text font-size="12.8016" style="fill: #000000;text-anchor:middle;font-family:monospace;font-style:normal;font-weight:normal" x="779.788" y="475.955">data</text>
  </g>
  <g>
    <ellipse style="fill: #ffffff" cx="922.262" cy="211.441" rx="73.9" ry="18"/>
    <ellipse style="fill: none; fill-opacity:0; stroke-width: 2; stroke: #000000" cx="922.262" cy="211.441" rx="73.9" ry="18"/>
    <text font-size="12.8" style="fill: #000000;text-anchor:middle;font-family:monospace;font-style:normal;font-weight:normal" x="922.262" y="214.641">normaInfrigida</text>
  </g>
  <g>
    <ellipse style="fill: #ffffff" cx="815.96" cy="515.292" rx="100.85" ry="18"/>
    <ellipse style="fill: none; fill-opacity:0; stroke-width: 2; stroke: #000000" cx="815.96" cy="515.292" rx="100.85" ry="18"/>
    <text font-size="12.8" style="fill: #000000;text-anchor:middle;font-family:monospace;font-style:normal;font-weight:normal" x="815.96" y="518.492">classificacaoInfracao</text>
  </g>
  <g>
    <ellipse style="fill: #ffffff" cx="983.192" cy="253.493" rx="81.6" ry="18.001"/>
    <ellipse style="fill: none; fill-opacity:0; stroke-width: 2; stroke: #000000" cx="983.192" cy="253.493" rx="81.6" ry="18.001"/>
    <text font-size="12.8016" style="fill: #000000;text-anchor:middle;font-family:monospace;font-style:normal;font-weight:normal" x="983.192" y="256.693">dataLimiteDefesa</text>
  </g>
  <g>
    <ellipse style="fill: #ffffff" cx="686.792" cy="400.828" rx="58.5" ry="18"/>
    <ellipse style="fill: none; fill-opacity:0; stroke-width: 2; stroke: #000000" cx="686.792" cy="400.828" rx="58.5" ry="18"/>
    <text font-size="12.8" style="fill: #000000;text-anchor:middle;font-family:monospace;font-style:normal;font-weight:normal" x="686.792" y="404.028">numeroAuto</text>
    <line style="fill: none; fill-opacity:0; stroke-width: 2; stroke: #000000" x1="648.292" y1="408.828" x2="725.292" y2="408.828"/>
  </g>
  <line style="fill: none; fill-opacity:0; stroke-width: 2; stroke: #000000" x1="767.819" y1="368.986" x2="723.737" y2="386.309"/>
  <line style="fill: none; fill-opacity:0; stroke-width: 2; stroke: #000000" x1="849.026" y1="330.998" x2="953.235" y2="270.799"/>
  <line style="fill: none; fill-opacity:0; stroke-width: 2; stroke: #000000" x1="830.668" y1="331.023" x2="908.102" y2="229.928"/>
  <line style="fill: none; fill-opacity:0; stroke-width: 2; stroke: #000000" x1="821.661" y1="368.942" x2="846.372" y2="453.606"/>
  <line style="fill: none; fill-opacity:0; stroke-width: 2; stroke: #000000" x1="810.515" y1="368.971" x2="785.334" y2="454.024"/>
  <line style="fill: none; fill-opacity:0; stroke-width: 2; stroke: #000000" x1="816.112" y1="368.987" x2="815.98" y2="496.305"/>
  <line style="fill: none; fill-opacity:0; stroke-width: 2; stroke: #000000" x1="836.366" y1="368.999" x2="887.7" y2="417.2"/>
  <line style="fill: none; fill-opacity:0; stroke-width: 2; stroke: #000000" x1="870.549" y1="368.996" x2="909.297" y2="382.522"/>
  <line style="fill: none; fill-opacity:0; stroke-width: 2; stroke: #000000" x1="792.864" y1="368.998" x2="730.594" y2="419.841"/>
  <line style="fill: none; fill-opacity:0; stroke-width: 2; stroke: #000000" x1="888.846" y1="333.576" x2="947.496" y2="320.328"/>
  <line style="fill: none; fill-opacity:0; stroke-width: 2; stroke: #000000" x1="888.877" y1="352.635" x2="912.162" y2="353.479"/>
  <g>
    <polygon style="fill: #ffffff" points="621.15,349.746 664.25,323.886 707.35,349.746 664.25,375.606 "/>
    <polygon style="fill: none; fill-opacity:0; stroke-width: 2; stroke: #000000" points="621.15,349.746 664.25,323.886 707.35,349.746 664.25,375.606 "/>
    <text font-size="12.8" style="fill: #000000;text-anchor:end;font-family:monospace;font-style:normal;font-weight:normal" x="615.15" y="343.746">1</text>
    <text font-size="12.8" style="fill: #000000;text-anchor:start;font-family:monospace;font-style:normal;font-weight:normal" x="713.35" y="343.746">N</text>
    <text font-size="12.8" style="fill: #000000;text-anchor:middle;font-family:monospace;font-style:normal;font-weight:normal" x="664.25" y="352.946">recebe</text>
  </g>
  <polyline style="fill: none; fill-opacity:0; stroke-width: 2; stroke: #000000" points="708.348,349.746 725.861,349.746 725.861,350 743.373,350 "/>
  <g>
    <rect style="fill: #ffffff" x="437.106" y="331.67" width="81.9" height="36"/>
    <rect style="fill: none; fill-opacity:0; stroke-width: 2; stroke: #000000" x="437.106" y="331.67" width="81.9" height="36"/>
    <text font-size="12.8" style="fill: #000000;text-anchor:middle;font-family:monospace;font-style:normal;font-weight:normal" x="478.056" y="352.87">Veiculo</text>
  </g>
  <g>
    <ellipse style="fill: #ffffff" cx="356.536" cy="306.72" rx="54.65" ry="18"/>
    <ellipse style="fill: none; fill-opacity:0; stroke-width: 2; stroke: #000000" cx="356.536" cy="306.72" rx="54.65" ry="18"/>
    <text font-size="12.8" style="fill: #000000;text-anchor:middle;font-family:monospace;font-style:normal;font-weight:normal" x="356.536" y="309.92">categoria</text>
  </g>
  <g>
    <ellipse style="fill: #ffffff" cx="580.878" cy="311.386" rx="43.1" ry="18"/>
    <ellipse style="fill: none; fill-opacity:0; stroke-width: 2; stroke: #000000" cx="580.878" cy="311.386" rx="43.1" ry="18"/>
    <text font-size="12.8" style="fill: #000000;text-anchor:middle;font-family:monospace;font-style:normal;font-weight:normal" x="580.878" y="314.586">modelo</text>
  </g>
  <g>
    <ellipse style="fill: #ffffff" cx="475.094" cy="286.362" rx="54.65" ry="18"/>
    <ellipse style="fill: none; fill-opacity:0; stroke-width: 2; stroke: #000000" cx="475.094" cy="286.362" rx="54.65" ry="18"/>
    <text font-size="12.8" style="fill: #000000;text-anchor:middle;font-family:monospace;font-style:normal;font-weight:normal" x="475.094" y="289.562">matricula</text>
    <line style="fill: none; fill-opacity:0; stroke-width: 2; stroke: #000000" x1="440.444" y1="294.362" x2="509.744" y2="294.362"/>
  </g>
  <line style="fill: none; fill-opacity:0; stroke-width: 2; stroke: #000000" x1="477.167" y1="330.675" x2="475.983" y2="305.357"/>
  <line style="fill: none; fill-opacity:0; stroke-width: 2; stroke: #000000" x1="520.009" y1="334.049" x2="547.78" y2="323.71"/>
  <line style="fill: none; fill-opacity:0; stroke-width: 2; stroke: #000000" x1="436.135" y1="334.854" x2="394.63" y2="320.184"/>
  <g>
    <ellipse style="fill: #ffffff" cx="-162.716" cy="520.232" rx="39.25" ry="18"/>
    <ellipse style="fill: none; fill-opacity:0; stroke-width: 2; stroke: #000000" cx="-162.716" cy="520.232" rx="39.25" ry="18"/>
    <text font-size="12.8" style="fill: #000000;text-anchor:middle;font-family:monospace;font-style:normal;font-weight:normal" x="-162.716" y="523.432">email</text>
  </g>
  <g>
    <ellipse style="fill: #ffffff" cx="-213.054" cy="358.256" rx="73.9" ry="18"/>
    <ellipse style="fill: none; fill-opacity:0; stroke-width: 2; stroke: #000000" cx="-213.054" cy="358.256" rx="73.9" ry="18"/>
    <text font-size="12.8" style="fill: #000000;text-anchor:middle;font-family:monospace;font-style:normal;font-weight:normal" x="-213.054" y="361.456">tituloConducao</text>
  </g>
  <g>
    <ellipse style="fill: #ffffff" cx="-176.57" cy="452.606" rx="35.4" ry="18"/>
    <ellipse style="fill: none; fill-opacity:0; stroke-width: 2; stroke: #000000" cx="-176.57" cy="452.606" rx="35.4" ry="18"/>
    <text font-size="12.8" style="fill: #000000;text-anchor:middle;font-family:monospace;font-style:normal;font-weight:normal" x="-176.57" y="455.806">nome</text>
  </g>
  <g>
    <ellipse style="fill: #ffffff" cx="-182.182" cy="402.102" rx="31.55" ry="18"/>
    <ellipse style="fill: none; fill-opacity:0; stroke-width: 2; stroke: #000000" cx="-182.182" cy="402.102" rx="31.55" ry="18"/>
    <text font-size="12.8" style="fill: #000000;text-anchor:middle;font-family:monospace;font-style:normal;font-weight:normal" x="-182.182" y="405.302">nif</text>
    <line style="fill: none; fill-opacity:0; stroke-width: 2; stroke: #000000" x1="-193.732" y1="410.102" x2="-170.632" y2="410.102"/>
  </g>
  <line style="fill: none; fill-opacity:0; stroke-width: 2; stroke: #000000" x1="-47.9411" y1="368.724" x2="-149.283" y2="502.499"/>
  <line style="fill: none; fill-opacity:0; stroke-width: 2; stroke: #000000" x1="-59.9678" y1="368.732" x2="-155.332" y2="437.329"/>
  <line style="fill: none; fill-opacity:0; stroke-width: 2; stroke: #000000" x1="-71.6472" y1="351.541" x2="-139.562" y2="354.766"/>
  <line style="fill: none; fill-opacity:0; stroke-width: 2; stroke: #000000" x1="-71.618" y1="363.144" x2="-154.423" y2="392.321"/>
  <g>
    <ellipse style="fill: #ffffff" cx="9.5146" cy="482.586" rx="50.8" ry="18"/>
    <ellipse style="fill: none; fill-opacity:0; stroke-width: 2; stroke: #000000" cx="9.5146" cy="482.586" rx="50.8" ry="18"/>
    <text font-size="12.8" style="fill: #000000;text-anchor:middle;font-family:monospace;font-style:normal;font-weight:normal" x="9.5146" y="485.786">password</text>
  </g>
  <line style="fill: none; fill-opacity:0; stroke-width: 2; stroke: #000000" x1="-27.4027" y1="368.707" x2="3.41079" y2="463.757"/>
  <g>
    <polygon style="fill: #ffffff" points="68.5336,349.744 111.634,323.884 154.734,349.744 111.634,375.604 "/>
    <polygon style="fill: none; fill-opacity:0; stroke-width: 2; stroke: #000000" points="68.5336,349.744 111.634,323.884 154.734,349.744 111.634,375.604 "/>
    <text font-size="12.8" style="fill: #000000;text-anchor:end;font-family:monospace;font-style:normal;font-weight:normal" x="62.5336" y="343.744">1</text>
    <text font-size="12.8" style="fill: #000000;text-anchor:start;font-family:monospace;font-style:normal;font-weight:normal" x="160.734" y="343.744">N</text>
    <text font-size="12.8" style="fill: #000000;text-anchor:middle;font-family:monospace;font-style:normal;font-weight:normal" x="111.634" y="352.944">possui</text>
  </g>
  <polyline style="fill: none; fill-opacity:0; stroke-width: 2; stroke: #000000" points="154.734,349.744 295.92,349.744 295.92,349.67 437.106,349.67 "/>
  <polyline style="fill: none; fill-opacity:0; stroke-width: 2; stroke: #000000" points="3.5462,349.732 36.0399,349.732 36.0399,349.744 68.5336,349.744 "/>
  <polyline style="fill: none; fill-opacity:0; stroke-width: 2; stroke: #000000" points="520.011,349.67 570.581,349.67 570.581,349.746 621.15,349.746 "/>
  <g>
    <ellipse style="fill: #ffffff" cx="228.178" cy="566.396" rx="58.5" ry="18"/>
    <ellipse style="fill: none; fill-opacity:0; stroke-width: 2; stroke: #000000" cx="228.178" cy="566.396" rx="58.5" ry="18"/>
    <text font-size="12.8" style="fill: #000000;text-anchor:middle;font-family:monospace;font-style:normal;font-weight:normal" x="228.178" y="569.596">dataInicio</text>
    <line style="fill: none; fill-opacity:0; stroke-width: 2; stroke-dasharray: 6; stroke: #000000" x1="189.678" y1="574.396" x2="266.678" y2="574.396"/>
  </g>
  <g>
    <rect style="fill: #ffffff" x="183.482" y="416.526" width="105" height="36"/>
    <rect style="fill: none; fill-opacity:0; stroke-width: 2; stroke: #000000" x="183.482" y="416.526" width="105" height="36"/>
    <rect style="fill: none; fill-opacity:0; stroke-width: 2; stroke: #000000" x="188.482" y="421.526" width="95" height="26"/>
    <text font-size="12.8" style="fill: #000000;text-anchor:middle;font-family:monospace;font-style:normal;font-weight:normal" x="235.982" y="437.726">Emprestimo</text>
  </g>
  <g>
    <rect style="fill: #ffffff" x="-70.6538" y="331.732" width="74.2" height="36"/>
    <rect style="fill: none; fill-opacity:0; stroke-width: 2; stroke: #000000" x="-70.6538" y="331.732" width="74.2" height="36"/>
    <text font-size="12.8" style="fill: #000000;text-anchor:middle;font-family:monospace;font-style:normal;font-weight:normal" x="-33.5538" y="352.932">Pessoa</text>
  </g>
  <g>
    <polygon style="fill: #ffffff" points="68.1956,434.632 111.296,408.772 154.396,434.632 111.296,460.492 "/>
    <polygon style="fill: none; fill-opacity:0; stroke-width: 2; stroke: #000000" points="68.1956,434.632 111.296,408.772 154.396,434.632 111.296,460.492 "/>
    <text font-size="12.8" style="fill: #000000;text-anchor:end;font-family:monospace;font-style:normal;font-weight:normal" x="62.1956" y="428.632">1</text>
    <text font-size="12.8" style="fill: #000000;text-anchor:start;font-family:monospace;font-style:normal;font-weight:normal" x="160.396" y="428.632">N</text>
    <text font-size="12.8" style="fill: #000000;text-anchor:middle;font-family:monospace;font-style:normal;font-weight:normal" x="111.296" y="437.832">recebe</text>
  </g>
  <g>
    <polygon style="fill: #ffffff" points="323.99,434.184 390.19,394.464 456.39,434.184 390.19,473.904 "/>
    <polygon style="fill: none; fill-opacity:0; stroke-width: 2; stroke: #000000" points="323.99,434.184 390.19,394.464 456.39,434.184 390.19,473.904 "/>
    <polygon style="fill: none; fill-opacity:0; stroke-width: 2; stroke: #000000" points="331.99,434.184 390.19,399.264 448.39,434.184 390.19,469.104 "/>
    <text font-size="12.8" style="fill: #000000;text-anchor:end;font-family:monospace;font-style:normal;font-weight:normal" x="317.99" y="428.184">N</text>
    <text font-size="12.8" style="fill: #000000;text-anchor:start;font-family:monospace;font-style:normal;font-weight:normal" x="462.39" y="428.184">1</text>
    <text font-size="12.8" style="fill: #000000;text-anchor:middle;font-family:monospace;font-style:normal;font-weight:normal" x="390.19" y="437.384">é emprestado</text>
  </g>
  <polyline style="fill: none; fill-opacity:0; stroke-width: 2; stroke: #000000" points="4.35812,360.28 36.2769,360.28 36.2769,434.632 68.1956,434.632 "/>
  <polyline style="fill: none; fill-opacity:0; stroke-width: 2; stroke: #000000" points="478.056,367.67 478.056,434.184 456.39,434.184 "/>
  <polyline style="fill: none; fill-opacity:0; stroke-width: 2; stroke: #000000" points="154.396,434.632 168.939,434.632 168.939,434.526 183.482,434.526 "/>
  <g>
    <polyline style="fill: none; fill-opacity:0; stroke-width: 2; stroke: #000000" points="289.489,432.026 304.239,432.026 304.239,431.684 323.99,431.684 "/>
    <polyline style="fill: none; fill-opacity:0; stroke-width: 2; stroke: #000000" points="289.489,437.026 309.239,437.026 309.239,436.684 323.99,436.684 "/>
  </g>
  <line style="fill: none; fill-opacity:0; stroke-width: 2; stroke: #000000" x1="229.303" y1="547.393" x2="234.857" y2="453.529"/>
  <text font-size="12.8" style="fill: #000000;text-anchor:start;font-family:sans-serif;font-style:normal;font-weight:normal" x="-200.474" y="179.959">
    <tspan x="-200.474" y="179.959"></tspan>
  </text>
  <text font-size="12.8" style="fill: #000000;text-anchor:start;font-family:sans-serif;font-style:normal;font-weight:normal" x="-200.474" y="179.959">
    <tspan x="-200.474" y="179.959"></tspan>
  </text>
  <g>
    <rect style="fill: #ffffff" x="-90.2848" y="115.771" width="112.7" height="36"/>
    <rect style="fill: none; fill-opacity:0; stroke-width: 2; stroke: #000000" x="-90.2848" y="115.771" width="112.7" height="36"/>
    <rect style="fill: none; fill-opacity:0; stroke-width: 2; stroke: #000000" x="-85.2848" y="120.771" width="102.7" height="26"/>
    <text font-size="12.8" style="fill: #000000;text-anchor:middle;font-family:monospace;font-style:normal;font-weight:normal" x="-33.9348" y="136.971">Notificacao</text>
  </g>
  <g>
    <ellipse style="fill: #ffffff" cx="53.7711" cy="47.4868" rx="50.8" ry="18"/>
    <ellipse style="fill: none; fill-opacity:0; stroke-width: 2; stroke: #000000" cx="53.7711" cy="47.4868" rx="50.8" ry="18"/>
    <text font-size="12.8" style="fill: #000000;text-anchor:middle;font-family:monospace;font-style:normal;font-weight:normal" x="53.7711" y="50.6868">mensagem</text>
  </g>
  <g>
    <ellipse style="fill: #ffffff" cx="86.6764" cy="84.8342" rx="27.7" ry="18"/>
    <ellipse style="fill: none; fill-opacity:0; stroke-width: 2; stroke: #000000" cx="86.6764" cy="84.8342" rx="27.7" ry="18"/>
    <text font-size="12.8" style="fill: #000000;text-anchor:middle;font-family:monospace;font-style:normal;font-weight:normal" x="86.6764" y="88.0342">id</text>
    <line style="fill: none; fill-opacity:0; stroke-width: 2; stroke-dasharray: 6; stroke: #000000" x1="78.9764" y1="92.8342" x2="94.3764" y2="92.8342"/>
  </g>
  <g>
    <ellipse style="fill: #ffffff" cx="86.6138" cy="133.873" rx="50.8" ry="18"/>
    <ellipse style="fill: none; fill-opacity:0; stroke-width: 2; stroke: #000000" cx="86.6138" cy="133.873" rx="50.8" ry="18"/>
    <text font-size="12.8" style="fill: #000000;text-anchor:middle;font-family:monospace;font-style:normal;font-weight:normal" x="86.6138" y="137.073">recebida</text>
  </g>
  <g>
    <ellipse style="fill: #ffffff" cx="70.6634" cy="186.727" rx="35.4" ry="18"/>
    <ellipse style="fill: none; fill-opacity:0; stroke-width: 2; stroke: #000000" cx="70.6634" cy="186.727" rx="35.4" ry="18"/>
    <text font-size="12.8" style="fill: #000000;text-anchor:middle;font-family:monospace;font-style:normal;font-weight:normal" x="70.6634" y="189.927">tipo</text>
  </g>
  <g>
    <ellipse style="fill: #ffffff" cx="-41.0196" cy="74.8278" rx="46.95" ry="18"/>
    <ellipse style="fill: none; fill-opacity:0; stroke-width: 2; stroke: #000000" cx="-41.0196" cy="74.8278" rx="46.95" ry="18"/>
    <text font-size="12.8" style="fill: #000000;text-anchor:middle;font-family:monospace;font-style:normal;font-weight:normal" x="-41.0196" y="78.0278">emitida</text>
  </g>
  <g>
    <ellipse style="fill: #ffffff" cx="180.789" cy="514.74" rx="43.1" ry="18"/>
    <ellipse style="fill: none; fill-opacity:0; stroke-width: 2; stroke: #000000" cx="180.789" cy="514.74" rx="43.1" ry="18"/>
    <text font-size="12.8" style="fill: #000000;text-anchor:middle;font-family:monospace;font-style:normal;font-weight:normal" x="180.789" y="517.94">estado</text>
  </g>
  <g>
    <ellipse style="fill: #ffffff" cx="295.518" cy="533.986" rx="54.65" ry="18"/>
    <ellipse style="fill: none; fill-opacity:0; stroke-width: 2; stroke: #000000" cx="295.518" cy="533.986" rx="54.65" ry="18"/>
    <text font-size="12.8" style="fill: #000000;text-anchor:middle;font-family:monospace;font-style:normal;font-weight:normal" x="295.518" y="537.186">dataFinal</text>
  </g>
  <line style="fill: none; fill-opacity:0; stroke-width: 2; stroke: #000000" x1="247.356" y1="453.527" x2="284.435" y2="515.471"/>
  <line style="fill: none; fill-opacity:0; stroke-width: 2; stroke: #000000" x1="222.905" y1="453.532" x2="193.253" y2="496.625"/>
  <g>
    <polygon style="fill: #ffffff" points="-84.5184,248.222 -33.7184,217.742 17.0816,248.222 -33.7184,278.702 "/>
    <polygon style="fill: none; fill-opacity:0; stroke-width: 2; stroke: #000000" points="-84.5184,248.222 -33.7184,217.742 17.0816,248.222 -33.7184,278.702 "/>
    <text font-size="12.8" style="fill: #000000;text-anchor:start;font-family:monospace;font-style:normal;font-weight:normal" x="-29.7184" y="211.742">N</text>
    <text font-size="12.8" style="fill: #000000;text-anchor:start;font-family:monospace;font-style:normal;font-weight:normal" x="-29.7184" y="300.702">1</text>
    <text font-size="12.8" style="fill: #000000;text-anchor:middle;font-family:monospace;font-style:normal;font-weight:normal" x="-33.7184" y="251.422">notifica</text>
  </g>
  <g>
    <polyline style="fill: none; fill-opacity:0; stroke-width: 2; stroke: #000000" points="-31.4348,152.781 -31.4348,182.268 -31.2184,182.268 -31.2184,216.755 "/>
    <polyline style="fill: none; fill-opacity:0; stroke-width: 2; stroke: #000000" points="-36.4348,152.781 -36.4348,187.268 -36.2184,187.268 -36.2184,216.755 "/>
  </g>
  <polyline style="fill: none; fill-opacity:0; stroke-width: 2; stroke: #000000" points="-33.5538,330.723 -33.5538,305.206 -33.7184,305.206 -33.7184,279.689 "/>
  <line style="fill: none; fill-opacity:0; stroke-width: 2; stroke: #000000" x1="3.57857" y1="152.763" x2="44.6862" y2="173.575"/>
  <line style="fill: none; fill-opacity:0; stroke-width: 2; stroke: #000000" x1="23.4111" y1="133.82" x2="34.8082" y2="133.83"/>
  <line style="fill: none; fill-opacity:0; stroke-width: 2; stroke: #000000" x1="12.8992" y1="114.769" x2="62.2656" y2="94.7387"/>
  <line style="fill: none; fill-opacity:0; stroke-width: 2; stroke: #000000" x1="-14.6421" y1="114.791" x2="35.8434" y2="65.124"/>
  <line style="fill: none; fill-opacity:0; stroke-width: 2; stroke: #000000" x1="-36.2189" y1="114.769" x2="-38.739" y2="93.8017"/>
  <g>
    <ellipse style="fill: #ffffff" cx="775.388" cy="209.821" rx="62.35" ry="18"/>
    <ellipse style="fill: none; fill-opacity:0; stroke-width: 2; stroke: #000000" cx="775.388" cy="209.821" rx="62.35" ry="18"/>
    <text font-size="12.8" style="fill: #000000;text-anchor:middle;font-family:monospace;font-style:normal;font-weight:normal" x="775.388" y="213.021">visualizado</text>
  </g>
  <line style="fill: none; fill-opacity:0; stroke-width: 2; stroke: #000000" x1="810.609" y1="330.997" x2="780.881" y2="228.721"/>
  <g>
    <ellipse style="fill: #ffffff" cx="-163.434" cy="318.294" rx="39.25" ry="18"/>
    <ellipse style="fill: none; fill-opacity:0; stroke-width: 2; stroke: #000000" cx="-163.434" cy="318.294" rx="39.25" ry="18"/>
    <text font-size="12.8" style="fill: #000000;text-anchor:middle;font-family:monospace;font-style:normal;font-weight:normal" x="-163.434" y="321.494">ativo</text>
  </g>
  <line style="fill: none; fill-opacity:0; stroke-width: 2; stroke: #000000" x1="-71.6363" y1="340.514" x2="-127.753" y2="326.931"/>
</svg>
